<?xml version="1.0" encoding="UTF-8"?><svg id="Layer_2" xmlns="http://www.w3.org/2000/svg" viewBox="0 0 668.41 515.18"><defs><style>.cls-1{fill:none;opacity:.1;stroke:#9881c7;stroke-linecap:round;stroke-miterlimit:10;stroke-width:3px;}.cls-2{fill:#9881c7;opacity:.05;stroke-width:0px;}</style></defs><g id="Layer_5"><path class="cls-2" d="M334.01,0C150.15,0,1.1,19.53,1.1,43.62v471.56h665.8V43.62c0-24.09-149.04-43.62-332.9-43.62Z"/><path class="cls-1" d="M557.78,444.79c67.04-7.98,109.13-19.49,109.13-32.3"/><path class="cls-1" d="M557.78,316.78c67.04-7.98,109.13-19.49,109.13-32.3"/><path class="cls-1" d="M557.78,188.77c67.04-7.98,109.13-19.49,109.13-32.3"/><path class="cls-1" d="M595.64,375.19c43.78-5.21,71.27-12.73,71.27-21.09"/><path class="cls-1" d="M595.64,247.17c43.78-5.21,71.27-12.73,71.27-21.09"/><ellipse class="cls-1" cx="334.01" cy="45.99" rx="332.51" ry="43.57"/></g></svg>